<!DOCTYPE svg PUBLIC "-//W3C//DTD SVG 1.1//EN" "http://www.w3.org/Graphics/SVG/1.1/DTD/svg11.dtd">
<!-- Uploaded to: SVG Repo, www.svgrepo.com, Transformed by: SVG Repo Mixer Tools -->
<svg fill="#ffffff" height="800px" width="800px" version="1.1" id="Layer_1" xmlns="http://www.w3.org/2000/svg" xmlns:xlink="http://www.w3.org/1999/xlink" viewBox="-76.8 -76.8 665.60 665.60" xml:space="preserve" stroke="#ffffff" stroke-width="5.12001">
<g id="SVGRepo_bgCarrier" stroke-width="0"/>
<g id="SVGRepo_tracerCarrier" stroke-linecap="round" stroke-linejoin="round"/>
<g id="SVGRepo_iconCarrier"> <g> <g> <path d="M430.162,433.041l-106.859-71.227c-3.079-2.052-7.106-1.992-10.123,0.151l-53.704,38.18 c-25.768-15.386-54.425-38.368-81.288-65.25c-26.89-26.889-49.867-55.541-65.234-81.271l38.182-53.703 c2.145-3.017,2.204-7.044,0.151-10.124L80.04,82.94c-2.457-3.686-7.248-5.011-11.25-3.115L33.177,96.701 c-2.007,0.951-3.586,2.615-4.431,4.668L5.57,157.649c-7.09,17.216-5.687,37.076,3.751,53.126l8.033,13.659 c2.499,4.249,7.972,5.668,12.22,3.169c4.249-2.499,5.669-7.971,3.169-12.22l-8.033-13.659 c-6.622-11.262-7.608-25.198-2.634-37.277l16.727-40.618l69.261,105.863L95.07,247.968c-2.01,2.827-2.203,6.563-0.489,9.58 c16.065,28.311,41.275,60.264,70.981,89.971c29.676,29.695,61.635,54.911,89.992,71.002c3.017,1.713,6.754,1.521,9.58-0.489 l18.277-12.995l44.803,29.312c1.508,0.987,3.203,1.458,4.88,1.458c2.91,0,5.765-1.422,7.478-4.041 c2.699-4.125,1.542-9.658-2.583-12.357l-38.95-25.484l19.476-13.848l95.329,63.541l-9.191,19.405l-45.099-29.506 c-4.126-2.699-9.657-1.542-12.358,2.583c-2.699,4.125-1.542,9.658,2.583,12.357l39.494,25.839l-40.606,16.722 c-12.084,4.976-26.026,3.991-37.291-2.641l-13.656-8.039c-91.579-53.865-186.76-145.229-248.4-238.437 c-2.72-4.112-8.259-5.242-12.37-2.522c-4.112,2.72-5.242,8.258-2.522,12.37c63.047,95.335,160.466,188.821,254.238,243.978 l13.654,8.036c9.278,5.462,19.83,8.237,30.411,8.237c7.724,0,15.465-1.479,22.735-4.473l56.269-23.172 c2.054-0.846,3.718-2.427,4.669-4.433l16.876-35.632C435.173,440.287,433.848,435.499,430.162,433.041z M50.077,108.448 l19.388-9.187l63.559,95.328l-13.848,19.475L50.077,108.448z"/> </g> </g> <g> <g> <path d="M217.936,35.793c-2.755-4.087-8.305-5.165-12.392-2.409c-33.649,22.697-59.089,54.651-73.57,92.409 c-1.766,4.604,0.536,9.767,5.138,11.532c1.052,0.404,2.132,0.594,3.194,0.594c3.591,0,6.975-2.182,8.337-5.732 c13.161-34.318,36.289-63.365,66.884-84.002C219.616,45.429,220.694,39.88,217.936,35.793z"/> </g> </g> <g> <g> <path d="M314.977,0c-27.82,0-54.707,5.715-79.907,16.984c-4.5,2.013-6.518,7.292-4.505,11.792 c2.013,4.501,7.296,6.518,11.792,4.505c22.893-10.238,47.327-15.429,72.62-15.429c98.191,0,178.076,79.885,178.076,178.077 c0,36.503-10.962,71.583-31.702,101.448c-20.274,29.196-48.406,51.461-81.356,64.39c-4.589,1.801-6.851,6.981-5.049,11.57 c1.381,3.518,4.747,5.668,8.311,5.668c1.084,0,2.188-0.199,3.258-0.619c36.253-14.225,67.202-38.716,89.5-70.825 c22.826-32.87,34.889-71.471,34.889-111.631C510.906,87.894,423.012,0,314.977,0z"/> </g> </g> <g> <g> <path d="M297.337,253.236h-44.681l27.578-27.578c16.786-16.785,26.031-39.104,26.031-62.845c0-23.183-18.861-42.043-42.043-42.043 s-42.042,18.86-42.042,42.043c0,4.93,3.995,8.926,8.926,8.926c4.931,0,8.927-3.997,8.927-8.926c0-13.339,10.851-24.19,24.19-24.19 c13.339,0,24.19,10.851,24.19,24.19c0,18.971-7.388,36.807-20.803,50.221l-42.816,42.816c-2.553,2.553-3.316,6.393-1.934,9.727 c1.381,3.335,4.637,5.511,8.247,5.511h66.232c4.931,0,8.926-3.997,8.926-8.927C306.263,257.232,302.268,253.236,297.337,253.236z"/> </g> </g> <g> <g> <path d="M398.845,209.784h-14.958v-80.087c0.001-4.016-2.68-7.537-6.552-8.605s-7.978,0.581-10.038,4.029l-53.154,89.014 c-1.647,2.758-1.684,6.189-0.099,8.982s4.55,4.52,7.762,4.52h44.228v34.525c0,4.93,3.995,8.927,8.927,8.927 c4.931,0,8.926-3.997,8.926-8.927v-34.525h14.958c4.931,0,8.927-3.997,8.927-8.926 C407.772,213.781,403.776,209.784,398.845,209.784z M366.035,209.784h-28.5l28.5-47.728V209.784z"/> </g> </g> </g>
</svg>