<!DOCTYPE svg PUBLIC "-//W3C//DTD SVG 1.1//EN" "http://www.w3.org/Graphics/SVG/1.1/DTD/svg11.dtd">
<!-- Uploaded to: SVG Repo, www.svgrepo.com, Transformed by: SVG Repo Mixer Tools -->
<svg fill="#F58220" width="161px" height="161px" viewBox="0 0 32.00 32.00" id="icon" xmlns="http://www.w3.org/2000/svg" stroke="#F58220" stroke-width="0.00032">
<g id="SVGRepo_bgCarrier" stroke-width="0"/>
<g id="SVGRepo_tracerCarrier" stroke-linecap="round" stroke-linejoin="round"/>
<g id="SVGRepo_iconCarrier">
<defs>
<style>.cls-1{fill:none;}</style>
</defs>
<title>quotes</title>
<path d="M12,15H6.11A9,9,0,0,1,10,8.86l1.79-1.2L10.69,6,8.9,7.2A11,11,0,0,0,4,16.35V23a2,2,0,0,0,2,2h6a2,2,0,0,0,2-2V17A2,2,0,0,0,12,15Z"/>
<path d="M26,15H20.11A9,9,0,0,1,24,8.86l1.79-1.2L24.7,6,22.9,7.2A11,11,0,0,0,18,16.35V23a2,2,0,0,0,2,2h6a2,2,0,0,0,2-2V17A2,2,0,0,0,26,15Z"/>
<rect id="_Transparent_Rectangle_" data-name="&lt;Transparent Rectangle&gt;" class="cls-1" width="32" height="32"/>
</g>
</svg>